<?xml version="1.0" standalone="no"?>
<!DOCTYPE svg PUBLIC "-//W3C//DTD SVG 1.1//EN" "http://www.w3.org/Graphics/SVG/1.1/DTD/svg11.dtd">
<!--Generator: Xara Designer (www.xara.com), SVG filter version: 6.6.0.1-->
<svg fill="none" fill-rule="evenodd" stroke="black" stroke-width="0.501" stroke-linejoin="bevel" stroke-miterlimit="10" font-family="Times New Roman" font-size="16" style="font-variant-ligatures:none" xmlns:xlink="http://www.w3.org/1999/xlink" xmlns="http://www.w3.org/2000/svg" version="1.1" overflow="visible" width="34.443pt" height="41.353pt" viewBox="300.985 -541.891 34.443 41.353">
 <defs>
	</defs>
 <g id="Page background" transform="scale(1 -1)"/>
 <g id="Layer 1" transform="scale(1 -1)">
  <path d="M 306.794,527.583 C 293.229,513.725 306.526,503.673 317.251,510.289 C 315.226,503.071 314.112,502.503 312.883,500.602 L 324.462,500.602 C 322.976,502.521 321.415,503.071 319.833,510.248 C 330.783,503.958 342.323,514.928 330.174,527.583 C 322.227,534.534 319.142,540.879 318.484,541.78 C 317.852,541.03 314.127,534.405 306.794,527.583 Z" fill="#000000" stroke="#08441e" stroke-width="0.127" stroke-linejoin="miter" marker-start="none" marker-end="none"/>
  <path d="M 318.478,523.008 C 317.265,523.008 309.769,527.762 304.705,525.04 C 305.501,523.456 306.123,521.932 306.954,520.632 C 308.224,518.645 309.941,517.725 311.948,517.995 C 314.325,518.316 316.726,520.464 318.356,520.464 C 319.986,520.464 322.387,518.316 324.764,517.995 C 326.771,517.725 328.487,518.646 329.758,520.632 C 330.589,521.932 331.21,523.456 332.007,525.041 C 326.943,527.762 319.691,523.008 318.478,523.008 Z M 311.401,520.105 C 310.417,519.973 309.576,520.424 308.953,521.397 C 308.546,522.034 308.241,522.781 307.852,523.558 C 310.555,525.01 312.786,523.656 315.111,522.284 C 313.934,521.196 312.791,520.292 311.401,520.105 Z M 327.759,521.397 C 327.136,520.424 326.294,519.973 325.311,520.105 C 323.921,520.292 322.777,521.196 321.601,522.284 C 323.926,523.656 326.157,525.01 328.86,523.558 C 328.47,522.781 328.166,522.034 327.759,521.397 Z" stroke="none" fill="#ffffff" stroke-width="0.044" fill-rule="nonzero" stroke-linejoin="miter" marker-start="none" marker-end="none"/>
 </g>
</svg>
